<?xml version="1.0" encoding="UTF-8" standalone="no"?>
<svg
   xmlns:dc="http://purl.org/dc/elements/1.1/"
   xmlns:cc="http://creativecommons.org/ns#"
   xmlns:rdf="http://www.w3.org/1999/02/22-rdf-syntax-ns#"
   xmlns:svg="http://www.w3.org/2000/svg"
   xmlns="http://www.w3.org/2000/svg"
   xmlns:sodipodi="http://sodipodi.sourceforge.net/DTD/sodipodi-0.dtd"
   xmlns:inkscape="http://www.inkscape.org/namespaces/inkscape"
   enable-background="new 0 0 32 32"
   height="32"
   viewBox="0 0 32 32"
   width="32"
   version="1.1"
   id="svg8"
   sodipodi:docname="user-circle.svg"
   inkscape:version="1.0.1 (3bc2e813f5, 2020-09-07)">
  <metadata
     id="metadata14">
    <rdf:RDF>
      <cc:Work
         rdf:about="">
        <dc:format>image/svg+xml</dc:format>
        <dc:type
           rdf:resource="http://purl.org/dc/dcmitype/StillImage" />
      </cc:Work>
    </rdf:RDF>
  </metadata>
  <defs
     id="defs12" />
  <sodipodi:namedview
     pagecolor="#ffffff"
     bordercolor="#666666"
     borderopacity="1"
     objecttolerance="10"
     gridtolerance="10"
     guidetolerance="10"
     inkscape:pageopacity="0"
     inkscape:pageshadow="2"
     inkscape:window-width="1920"
     inkscape:window-height="1001"
     id="namedview10"
     showgrid="false"
     inkscape:zoom="18.73833"
     inkscape:cx="16.470018"
     inkscape:cy="17.57172"
     inkscape:window-x="-9"
     inkscape:window-y="-9"
     inkscape:window-maximized="1"
     inkscape:current-layer="svg8" />
  <ellipse
     style="opacity:0.996;fill:#ffffff;fill-opacity:1;stroke:none;stroke-width:0.828337;stroke-linejoin:round;stroke-miterlimit:4;stroke-dasharray:none;stroke-opacity:1"
     id="path852"
     cx="16.009964"
     cy="15.956597"
     rx="15.417007"
     ry="15.470373" />
  <g
     clip-rule="evenodd"
     fill="#1c1c1c"
     fill-rule="evenodd"
     id="g6">
    <path
       d="m16 0c-8.837 0-16 7.163-16 16s7.163 16 16 16 16-7.163 16-16-7.163-16-16-16zm0 31c-8.284 0-15-6.716-15-15s6.716-15 15-15 15 6.716 15 15-6.716 15-15 15z"
       id="path2" />
    <path
       d="m19.37 15.672c.996-.914 1.63-2.214 1.63-3.672 0-2.761-2.239-5-5-5s-5 2.239-5 5c0 1.458.634 2.758 1.63 3.672-3.298 1.334-5.63 4.552-5.63 8.328h18c0-3.776-2.332-6.994-5.63-8.328zm-7.37-3.672c0-2.209 1.791-4 4-4s4 1.791 4 4c0 1.37-.69 2.577-1.74 3.298-.05.034-.106.06-.158.092-.145.09-.295.174-.452.245-.077.035-.158.065-.238.095-.15.057-.304.105-.462.143-.075.018-.149.039-.226.053-.235.044-.476.074-.724.074s-.489-.03-.725-.073c-.077-.014-.151-.035-.226-.053-.158-.039-.312-.087-.462-.143-.08-.03-.16-.06-.238-.095-.157-.071-.307-.155-.452-.245-.052-.032-.108-.058-.158-.092-1.049-.722-1.739-1.929-1.739-3.299zm-3.931 11c.393-3.141 2.604-5.711 5.546-6.631.712.389 1.516.631 2.385.631s1.673-.242 2.385-.631c2.942.92 5.153 3.491 5.546 6.631z"
       id="path4" />
  </g>
</svg>
